<svg width="44" height="43" viewBox="0 0 44 43" fill="none" xmlns="http://www.w3.org/2000/svg">
<rect x="0.820068" width="43" height="43" rx="5" fill="#FC5522" fill-opacity="0.15"/>
<path d="M22.8661 33.258L22.8541 33.26L22.7831 33.295L22.7631 33.299L22.7491 33.295L22.6781 33.259C22.6675 33.2563 22.6595 33.2583 22.6541 33.265L22.6501 33.275L22.6331 33.703L22.6381 33.723L22.6481 33.736L22.7521 33.81L22.7671 33.814L22.7791 33.81L22.8831 33.736L22.8951 33.72L22.8991 33.703L22.8821 33.276C22.8795 33.2653 22.8741 33.2593 22.8661 33.258ZM23.1301 33.145L23.1161 33.147L22.9321 33.24L22.9221 33.25L22.9191 33.261L22.9371 33.691L22.9421 33.703L22.9501 33.711L23.1511 33.803C23.1638 33.8063 23.1735 33.8037 23.1801 33.795L23.1841 33.781L23.1501 33.167C23.1468 33.1543 23.1401 33.147 23.1301 33.145ZM22.4151 33.147C22.4107 33.1443 22.4055 33.1435 22.4004 33.1446C22.3954 33.1457 22.391 33.1487 22.3881 33.153L22.3821 33.167L22.3481 33.781C22.3488 33.793 22.3545 33.801 22.3651 33.805L22.3801 33.803L22.5811 33.71L22.5911 33.702L22.5941 33.691L22.6121 33.261L22.6091 33.249L22.5991 33.239L22.4151 33.147Z" fill="#FC5522"/>
<path d="M19.3791 15.448C19.9771 13.698 22.3951 13.645 23.1041 15.289L23.1641 15.449L23.9711 17.809C24.156 18.3502 24.4549 18.8455 24.8475 19.2614C25.2401 19.6773 25.7174 20.0042 26.2471 20.22L26.4641 20.301L28.8241 21.107C30.5741 21.705 30.6271 24.123 28.9841 24.832L28.8241 24.892L26.4641 25.699C25.9227 25.8838 25.4272 26.1826 25.0111 26.5753C24.595 26.9679 24.268 27.4452 24.0521 27.975L23.9711 28.191L23.1651 30.552C22.5671 32.302 20.1491 32.355 19.4411 30.712L19.3791 30.552L18.5731 28.192C18.3883 27.6506 18.0894 27.1551 17.6968 26.739C17.3042 26.3229 16.8269 25.9959 16.2971 25.78L16.0811 25.699L13.7211 24.893C11.9701 24.295 11.9171 21.877 13.5611 21.169L13.7211 21.107L16.0811 20.301C16.6223 20.1161 17.1176 19.8172 17.5335 19.4246C17.9494 19.0319 18.2763 18.5547 18.4921 18.025L18.5731 17.809L19.3791 15.448ZM21.2721 16.094L20.4661 18.454C20.1845 19.2793 19.7263 20.0333 19.1236 20.6635C18.5209 21.2937 17.788 21.7849 16.9761 22.103L16.7261 22.194L14.3661 23L16.7261 23.806C17.5514 24.0876 18.3054 24.5457 18.9356 25.1485C19.5658 25.7512 20.057 26.4841 20.3751 27.296L20.4661 27.546L21.2721 29.906L22.0781 27.546C22.3597 26.7207 22.8178 25.9667 23.4205 25.3365C24.0233 24.7063 24.7561 24.2151 25.5681 23.897L25.8181 23.807L28.1781 23L25.8181 22.194C24.9928 21.9124 24.2388 21.4543 23.6086 20.8515C22.9784 20.2488 22.4872 19.5159 22.1691 18.704L22.0791 18.454L21.2721 16.094ZM29.2721 12C29.4592 12 29.6425 12.0525 29.8012 12.1515C29.96 12.2505 30.0878 12.392 30.1701 12.56L30.2181 12.677L30.5681 13.703L31.5951 14.053C31.7826 14.1167 31.9469 14.2346 32.0673 14.3918C32.1877 14.549 32.2587 14.7384 32.2714 14.936C32.284 15.1336 32.2377 15.3305 32.1383 15.5018C32.0389 15.673 31.8909 15.8109 31.7131 15.898L31.5951 15.946L30.5691 16.296L30.2191 17.323C30.1553 17.5104 30.0373 17.6747 29.88 17.795C29.7227 17.9153 29.5333 17.9862 29.3357 17.9987C29.1381 18.0113 28.9413 17.9648 28.7701 17.8654C28.5989 17.7659 28.461 17.6179 28.3741 17.44L28.3261 17.323L27.9761 16.297L26.9491 15.947C26.7616 15.8833 26.5972 15.7654 26.4768 15.6082C26.3565 15.451 26.2854 15.2616 26.2728 15.064C26.2602 14.8664 26.3065 14.6695 26.4059 14.4982C26.5052 14.327 26.6532 14.1891 26.8311 14.102L26.9491 14.054L27.9751 13.704L28.3251 12.677C28.3925 12.4794 28.5201 12.3079 28.6899 12.1865C28.8597 12.0651 29.0633 11.9999 29.2721 12Z" fill="#FC5522"/>
</svg>
