<svg width="44" height="43" viewBox="0 0 44 43" fill="none" xmlns="http://www.w3.org/2000/svg">
<rect x="0.820068" width="43" height="43" rx="5" fill="#D5F9FF" fill-opacity="0.5"/>
<path d="M29.8821 16C29.9358 15.6935 29.9218 15.379 29.841 15.0786C29.7602 14.7781 29.6147 14.499 29.4146 14.2607C29.2144 14.0225 28.9646 13.8309 28.6826 13.6995C28.4006 13.5681 28.0932 13.5 27.7821 13.5H16.8581C16.5469 13.5 16.2396 13.5681 15.9576 13.6995C15.6755 13.8309 15.4257 14.0225 15.2256 14.2607C15.0255 14.499 14.8799 14.7781 14.7992 15.0786C14.7184 15.379 14.7044 15.6935 14.7581 16M27.8201 13.5C27.8481 13.24 27.8631 13.111 27.8631 13.004C27.8642 12.5097 27.6821 12.0325 27.3522 11.6645C27.0222 11.2964 26.5676 11.0636 26.0761 11.011C25.9701 11 25.8401 11 25.5801 11H19.0601C18.8001 11 18.6691 11 18.5631 11.011C18.0716 11.0636 17.617 11.2964 17.287 11.6645C16.957 12.0325 16.775 12.5097 16.7761 13.004C16.7761 13.111 16.7901 13.241 16.8191 13.5" stroke="#00A5D0" stroke-width="1.5"/>
<path d="M25.3202 27H19.3202M31.5142 25.793C31.1642 28.273 30.9892 29.514 30.0922 30.257C29.1952 31 27.8722 31 25.2252 31H19.4152C16.7692 31 15.4452 31 14.5482 30.257C13.6512 29.514 13.4762 28.274 13.1262 25.793L12.7042 22.793C12.2572 19.629 12.0342 18.048 12.9822 17.023C13.9302 16 15.6182 16 18.9922 16H25.6482C29.0222 16 30.7102 16 31.6582 17.024C32.4072 17.833 32.4252 18.99 32.1792 21" stroke="#00A5D0" stroke-width="1.5" stroke-linecap="round"/>
</svg>
