<svg width="44" height="43" viewBox="0 0 44 43" fill="none" xmlns="http://www.w3.org/2000/svg">
<rect x="0.820068" width="43" height="43" rx="5" fill="#0C9417" fill-opacity="0.15"/>
<path d="M29.6701 19.04C29.3342 17.3377 28.4177 15.8049 27.0771 14.7032C25.7366 13.6016 24.0552 12.9996 22.3201 13C19.4301 13 16.9201 14.64 15.6701 17.04C14.2003 17.1988 12.8411 17.8952 11.8536 18.9953C10.866 20.0954 10.3199 21.5217 10.3201 23C10.3201 26.31 13.0101 29 16.3201 29H29.3201C32.0801 29 34.3201 26.76 34.3201 24C34.3201 21.36 32.2701 19.22 29.6701 19.04ZM29.3201 27H16.3201C14.1101 27 12.3201 25.21 12.3201 23C12.3201 20.95 13.8501 19.24 15.8801 19.03L16.9501 18.92L17.4501 17.97C17.91 17.0748 18.608 16.3239 19.4673 15.7999C20.3265 15.2759 21.3137 14.9991 22.3201 15C24.9401 15 27.2001 16.86 27.7101 19.43L28.0101 20.93L29.5401 21.04C30.2918 21.0906 30.9965 21.424 31.5123 21.9732C32.0281 22.5224 32.3167 23.2466 32.3201 24C32.3201 25.65 30.9701 27 29.3201 27ZM23.7701 19H20.8701V22H18.3201L22.3201 26L26.3201 22H23.7701V19Z" fill="#0C9417"/>
</svg>
