<svg width="44" height="43" viewBox="0 0 44 43" fill="none" xmlns="http://www.w3.org/2000/svg">
<rect x="0.820068" width="43" height="43" rx="5" fill="#F00000" fill-opacity="0.15"/>
<path d="M16.3201 24H17.8201V22H19.8201V24H21.3201V18H19.8201V20.5H17.8201V18H16.3201V24ZM23.3201 24H27.3201C27.6034 24 27.8411 23.904 28.0331 23.712C28.2251 23.52 28.3207 23.2827 28.3201 23V19C28.3201 18.7167 28.2241 18.4793 28.0321 18.288C27.8401 18.0967 27.6027 18.0007 27.3201 18H23.3201V24ZM24.8201 22.5V19.5H26.8201V22.5H24.8201ZM14.3201 29C13.7701 29 13.2994 28.8043 12.9081 28.413C12.5167 28.0217 12.3207 27.5507 12.3201 27V15C12.3201 14.45 12.5161 13.9793 12.9081 13.588C13.3001 13.1967 13.7707 13.0007 14.3201 13H30.3201C30.8701 13 31.3411 13.196 31.7331 13.588C32.1251 13.98 32.3207 14.4507 32.3201 15V27C32.3201 27.55 32.1244 28.021 31.7331 28.413C31.3417 28.805 30.8707 29.0007 30.3201 29H14.3201ZM14.3201 27H30.3201V15H14.3201V27Z" fill="#F00000"/>
</svg>
