<svg width="19" height="20" viewBox="0 0 19 20" fill="none" xmlns="http://www.w3.org/2000/svg">
<path d="M15.9916 8.49579C15.9916 8.66996 15.8491 8.81325 15.675 8.80454C14.7444 8.75789 13.8356 8.5065 13.0134 8.06829C12.7909 7.94954 12.5083 8.10392 12.5083 8.35646V12.7708C12.5082 13.6968 12.2376 14.6025 11.7295 15.3766C11.2215 16.1508 10.4983 16.7596 9.6488 17.1281C8.79934 17.4966 7.86068 17.6088 6.94828 17.4509C6.03589 17.293 5.18954 16.8719 4.51333 16.2393C3.83713 15.6068 3.36055 14.7903 3.14223 13.8905C2.9239 12.9906 2.97334 12.0466 3.28447 11.1745C3.5956 10.3024 4.15485 9.54018 4.89344 8.98171C5.63202 8.42324 6.51774 8.09281 7.44163 8.03108C7.48292 8.0289 7.52422 8.03525 7.56294 8.04974C7.60167 8.06423 7.63699 8.08654 7.66671 8.11529C7.69642 8.14404 7.71989 8.17861 7.73565 8.21683C7.75141 8.25506 7.75912 8.29612 7.7583 8.33746V10.5541C7.7583 10.7283 7.6158 10.8684 7.44322 10.8969C7.08593 10.957 6.75326 11.118 6.48445 11.3609C6.21563 11.6038 6.02187 11.9185 5.92601 12.2679C5.83015 12.6173 5.83619 12.9868 5.94341 13.3329C6.05063 13.679 6.25457 13.9872 6.53117 14.2212C6.80778 14.4552 7.14553 14.6052 7.50459 14.6536C7.86365 14.702 8.22906 14.6467 8.55774 14.4942C8.88641 14.3418 9.16465 14.0986 9.35965 13.7932C9.55464 13.4878 9.65827 13.1331 9.6583 12.7708V2.79579C9.6583 2.71181 9.69166 2.63126 9.75105 2.57188C9.81044 2.51249 9.89098 2.47913 9.97497 2.47913H12.1916C12.2763 2.48129 12.3571 2.51493 12.4183 2.57348C12.4795 2.63204 12.5167 2.7113 12.5226 2.79579C12.5966 3.60703 12.9526 4.36667 13.5287 4.94261C14.1048 5.51855 14.8645 5.87438 15.6758 5.94821C15.8499 5.96404 15.9924 6.10417 15.9924 6.27913L15.9916 8.49579Z" stroke="black" stroke-width="1.5" stroke-linecap="round" stroke-linejoin="round"/>
</svg>
