<svg width="44" height="44" viewBox="0 0 44 44" fill="none" xmlns="http://www.w3.org/2000/svg">
<rect x="0.5" y="0.25" width="43" height="43" rx="5" fill="#FFCD29" fill-opacity="0.15"/>
<path d="M21.4 18.25H29.4C28.95 17.1 28.2627 16.1123 27.338 15.287C26.4133 14.4617 25.3507 13.8827 24.15 13.55L21.4 18.25ZM19.1 20.25L23.1 13.35C22.9167 13.3167 22.7333 13.2917 22.55 13.275C22.3667 13.2583 22.1833 13.25 22 13.25C20.9 13.25 19.875 13.4583 18.925 13.875C17.975 14.2917 17.1333 14.85 16.4 15.55L19.1 20.25ZM14.25 23.25H19.7L15.7 16.35C15.1667 17.0333 14.75 17.7877 14.45 18.613C14.15 19.4383 14 20.3173 14 21.25C14 21.6 14.021 21.9377 14.063 22.263C14.105 22.5883 14.1673 22.9173 14.25 23.25ZM19.85 28.95L22.55 24.25H14.6C15.05 25.4 15.7377 26.3877 16.663 27.213C17.5883 28.0383 18.6507 28.6173 19.85 28.95ZM22 29.25C23.1 29.25 24.125 29.0417 25.075 28.625C26.025 28.2083 26.8667 27.65 27.6 26.95L24.9 22.25L20.9 29.15C21.0833 29.1833 21.2627 29.2083 21.438 29.225C21.6133 29.2417 21.8007 29.25 22 29.25ZM28.3 26.15C28.8333 25.4667 29.25 24.7127 29.55 23.888C29.85 23.0633 30 22.184 30 21.25C30 20.9 29.9793 20.5627 29.938 20.238C29.8967 19.9133 29.834 19.584 29.75 19.25H24.3L28.3 26.15ZM22 31.25C20.6333 31.25 19.3417 30.9873 18.125 30.462C16.9083 29.9367 15.846 29.22 14.938 28.312C14.03 27.404 13.3133 26.3417 12.788 25.125C12.2627 23.9083 12 22.6167 12 21.25C12 19.8667 12.2627 18.571 12.788 17.363C13.3133 16.155 14.03 15.0967 14.938 14.188C15.846 13.2793 16.9083 12.5627 18.125 12.038C19.3417 11.5133 20.6333 11.2507 22 11.25C23.3833 11.25 24.6793 11.5127 25.888 12.038C27.0967 12.5633 28.1547 13.28 29.062 14.188C29.9693 15.096 30.686 16.1543 31.212 17.363C31.738 18.5717 32.0007 19.8673 32 21.25C32 22.6167 31.7373 23.9083 31.212 25.125C30.6867 26.3417 29.97 27.4043 29.062 28.313C28.154 29.2217 27.0957 29.9383 25.887 30.463C24.6783 30.9877 23.3827 31.25 22 31.25Z" fill="#FFCD29"/>
</svg>
