<svg width="44" height="44" viewBox="0 0 44 44" fill="none" xmlns="http://www.w3.org/2000/svg">
<rect x="0.5" y="0.25" width="43" height="43" rx="5" fill="#F00000" fill-opacity="0.15"/>
<path d="M22 14.25V12.25H32V14.25H22ZM22 18.25V16.25H32V18.25H22ZM22 22.25V20.25H32V22.25H22ZM28.95 32.25C26.8667 32.25 24.8083 31.796 22.775 30.888C20.7417 29.98 18.8917 28.6923 17.225 27.025C15.5583 25.3577 14.271 23.5077 13.363 21.475C12.455 19.4423 12.0007 17.384 12 15.3C12 15 12.1 14.75 12.3 14.55C12.5 14.35 12.75 14.25 13.05 14.25H17.1C17.3333 14.25 17.5417 14.3293 17.725 14.488C17.9083 14.6467 18.0167 14.834 18.05 15.05L18.7 18.55C18.7333 18.8167 18.725 19.0417 18.675 19.225C18.625 19.4083 18.5333 19.5667 18.4 19.7L15.975 22.15C16.3083 22.7667 16.704 23.3627 17.162 23.938C17.62 24.5133 18.1243 25.0673 18.675 25.6C19.1917 26.1167 19.7333 26.596 20.3 27.038C20.8667 27.48 21.4667 27.884 22.1 28.25L24.45 25.9C24.6 25.75 24.796 25.6377 25.038 25.563C25.28 25.4883 25.5173 25.4673 25.75 25.5L29.2 26.2C29.4333 26.2667 29.625 26.3877 29.775 26.563C29.925 26.7383 30 26.934 30 27.15V31.2C30 31.5 29.9 31.75 29.7 31.95C29.5 32.15 29.25 32.25 28.95 32.25ZM15.025 20.25L16.675 18.6L16.25 16.25H14.025C14.1083 16.9333 14.225 17.6083 14.375 18.275C14.525 18.9417 14.7417 19.6 15.025 20.25ZM23.975 29.2C24.625 29.4833 25.2877 29.7083 25.963 29.875C26.6383 30.0417 27.3173 30.15 28 30.2V28L25.65 27.525L23.975 29.2Z" fill="#F24822"/>
</svg>
