<svg width="44" height="44" viewBox="0 0 44 44" fill="none" xmlns="http://www.w3.org/2000/svg">
<rect x="0.5" y="0.25" width="43" height="43" rx="5" fill="#14AE5C" fill-opacity="0.2"/>
<path d="M22.28 27.854C22.984 27.804 23.6787 27.6917 24.364 27.517C25.2073 27.7698 26.0972 27.8272 26.966 27.685C27.0005 27.6805 27.0352 27.6779 27.07 27.677C27.38 27.677 27.787 27.855 28.38 28.23V27.614C28.3801 27.5067 28.4091 27.4014 28.4638 27.309C28.5185 27.2167 28.5969 27.1407 28.691 27.089C28.949 26.946 29.189 26.779 29.408 26.597C30.272 25.874 30.76 24.911 30.76 23.891C30.7597 23.5537 30.706 23.2186 30.601 22.898C30.861 22.418 31.073 21.912 31.228 21.388C31.728 22.128 31.998 22.998 32 23.891C32 25.277 31.346 26.571 30.215 27.516C30.0258 27.6734 29.8271 27.819 29.62 27.952V29.394C29.62 29.89 29.04 30.174 28.631 29.88C28.2441 29.5942 27.8436 29.3273 27.431 29.08C27.3124 29.0103 27.1891 28.9488 27.062 28.896C26.722 28.9467 26.376 28.9723 26.024 28.973C24.612 28.973 23.307 28.555 22.28 27.854ZM14.814 24.968C13.03 23.478 12 21.442 12 19.264C12 14.81 16.258 11.25 21.457 11.25C26.656 11.25 30.915 14.81 30.915 19.264C30.915 23.718 26.656 27.277 21.457 27.277C20.8723 27.277 20.2963 27.2327 19.729 27.144C19.484 27.201 18.505 27.775 17.094 28.792C16.584 29.161 15.858 28.805 15.858 28.184V25.724C15.4924 25.4979 15.1435 25.2459 14.814 24.97M19.764 25.628C19.806 25.628 19.8493 25.6313 19.894 25.638C20.4106 25.7237 20.9334 25.7665 21.457 25.766C25.849 25.766 29.364 22.827 29.364 19.264C29.364 15.701 25.849 12.763 21.457 12.763C17.067 12.763 13.55 15.702 13.55 19.264C13.55 20.987 14.371 22.609 15.823 23.823C16.1897 24.1283 16.5883 24.402 17.019 24.644C17.26 24.779 17.409 25.029 17.409 25.299V26.718C18.525 25.978 19.259 25.628 19.763 25.628" fill="#14AE5C"/>
<path d="M17.625 20.624C17.9565 20.624 18.2745 20.4923 18.5089 20.2579C18.7433 20.0235 18.875 19.7055 18.875 19.374C18.875 19.0425 18.7433 18.7245 18.5089 18.4901C18.2745 18.2557 17.9565 18.124 17.625 18.124C17.2935 18.124 16.9755 18.2557 16.7411 18.4901C16.5067 18.7245 16.375 19.0425 16.375 19.374C16.375 19.7055 16.5067 20.0235 16.7411 20.2579C16.9755 20.4923 17.2935 20.624 17.625 20.624ZM21.687 20.624C22.0185 20.624 22.3365 20.4923 22.5709 20.2579C22.8053 20.0235 22.937 19.7055 22.937 19.374C22.937 19.0425 22.8053 18.7245 22.5709 18.4901C22.3365 18.2557 22.0185 18.124 21.687 18.124C21.3555 18.124 21.0375 18.2557 20.8031 18.4901C20.5687 18.7245 20.437 19.0425 20.437 19.374C20.437 19.7055 20.5687 20.0235 20.8031 20.2579C21.0375 20.4923 21.3555 20.624 21.687 20.624ZM25.75 20.625C26.0815 20.625 26.3995 20.4933 26.6339 20.2589C26.8683 20.0245 27 19.7065 27 19.375C27 19.0435 26.8683 18.7255 26.6339 18.4911C26.3995 18.2567 26.0815 18.125 25.75 18.125C25.4185 18.125 25.1005 18.2567 24.8661 18.4911C24.6317 18.7255 24.5 19.0435 24.5 19.375C24.5 19.7065 24.6317 20.0245 24.8661 20.2589C25.1005 20.4933 25.4185 20.625 25.75 20.625Z" fill="#14AE5C"/>
</svg>
