<svg width="44" height="44" viewBox="0 0 44 44" fill="none" xmlns="http://www.w3.org/2000/svg">
<rect x="0.5" y="0.25" width="43" height="43" rx="5" fill="#D5F9FF" fill-opacity="0.5"/>
<path fill-rule="evenodd" clip-rule="evenodd" d="M27.5533 25.356C27.7723 25.2464 28.0239 25.221 28.2604 25.2846C28.4969 25.3482 28.7018 25.4964 28.8363 25.701L28.8943 25.803L30.8943 29.803C30.9657 29.9456 31.0019 30.1033 30.9999 30.2628C30.9979 30.4223 30.9578 30.579 30.883 30.7198C30.8081 30.8606 30.7006 30.9815 30.5695 31.0724C30.4384 31.1632 30.2875 31.2214 30.1293 31.242L30.0003 31.25H14.0003C13.8408 31.2501 13.6836 31.2119 13.5418 31.1388C13.4 31.0657 13.2777 30.9598 13.1852 30.8298C13.0927 30.6998 13.0327 30.5496 13.0101 30.3917C12.9875 30.2337 13.003 30.0727 13.0553 29.922L13.1053 29.802L15.1053 25.802C15.2174 25.5703 15.4145 25.3907 15.6557 25.3007C15.8968 25.2106 16.1634 25.217 16.3999 25.3186C16.6364 25.4201 16.8247 25.6089 16.9256 25.8457C17.0264 26.0825 17.0321 26.3491 16.9413 26.59L16.8943 26.697L15.6183 29.25H28.3823L27.1063 26.697C26.9879 26.4599 26.9685 26.1854 27.0523 25.934C27.1361 25.6825 27.3163 25.4746 27.5533 25.356ZM22.0003 11.25C23.8568 11.25 25.6373 11.9875 26.9501 13.3003C28.2628 14.613 29.0003 16.3935 29.0003 18.25C29.0003 20.632 27.7113 22.567 26.3773 23.94C25.6405 24.6885 24.8305 25.3612 23.9593 25.948L23.5863 26.194L23.2543 26.403L23.1053 26.493L22.8483 26.641C22.3203 26.941 21.6803 26.941 21.1523 26.641L20.8953 26.492L20.5853 26.303L20.4143 26.194L20.0413 25.948C19.1702 25.3612 18.3601 24.6885 17.6233 23.94C16.2893 22.567 15.0003 20.632 15.0003 18.25C15.0003 16.3935 15.7378 14.613 17.0506 13.3003C18.3633 11.9875 20.1438 11.25 22.0003 11.25ZM22.0003 13.25C20.6742 13.25 19.4025 13.7768 18.4648 14.7145C17.5271 15.6521 17.0003 16.9239 17.0003 18.25C17.0003 19.886 17.8903 21.345 19.0573 22.546C19.7593 23.255 20.535 23.8869 21.3713 24.431L21.7113 24.648C21.8167 24.7127 21.913 24.7707 22.0003 24.822L22.2903 24.648L22.6293 24.431C23.4656 23.8869 24.2414 23.255 24.9433 22.546C26.1103 21.346 27.0003 19.886 27.0003 18.25C27.0003 16.9239 26.4735 15.6521 25.5359 14.7145C24.5982 13.7768 23.3264 13.25 22.0003 13.25ZM22.0003 15.25C22.796 15.25 23.559 15.5661 24.1216 16.1287C24.6843 16.6913 25.0003 17.4544 25.0003 18.25C25.0003 19.0456 24.6843 19.8087 24.1216 20.3713C23.559 20.9339 22.796 21.25 22.0003 21.25C21.2047 21.25 20.4416 20.9339 19.879 20.3713C19.3164 19.8087 19.0003 19.0456 19.0003 18.25C19.0003 17.4544 19.3164 16.6913 19.879 16.1287C20.4416 15.5661 21.2047 15.25 22.0003 15.25ZM22.0003 17.25C21.7351 17.25 21.4808 17.3554 21.2932 17.5429C21.1057 17.7304 21.0003 17.9848 21.0003 18.25C21.0003 18.5152 21.1057 18.7696 21.2932 18.9571C21.4808 19.1446 21.7351 19.25 22.0003 19.25C22.2655 19.25 22.5199 19.1446 22.7074 18.9571C22.895 18.7696 23.0003 18.5152 23.0003 18.25C23.0003 17.9848 22.895 17.7304 22.7074 17.5429C22.5199 17.3554 22.2655 17.25 22.0003 17.25Z" fill="#00A5D0"/>
</svg>
